# xmcd
#
# Track frame offsets:
#	150
#	29081
#	54943
#	75005
#	100407
#	106308
#	138864
#	170816
#
# Disc length: 2948 seconds
#
# Revision: 2
# Processed by: cddbd v1.5.1PL2 Copyright (c) Steve Scherf et al.
# Submitted via: audiograbber 1.83.01
#
DISCID=5e0b8208
DTITLE=Diverse - Power by Pauer
DYEAR=1900
DGENRE=Jazz
TTITLE0=My little Girl
TTITLE1=Alfie
TTITLE2=Backslicer's Hambone
TTITLE3=Dark Bird
TTITLE4=Sounds
TTITLE5=Domicilie
TTITLE6=Who'll Buy My Dream
TTITLE7=More Sounds
EXTD=Schallplatte
EXTT0=
EXTT1=
EXTT2=
EXTT3=
EXTT4=
EXTT5=
EXTT6=
EXTT7=
PLAYORDER=
